<?xml version="1.0" encoding="UTF-8" standalone="no"?>
<svg
   xmlns:dc="http://purl.org/dc/elements/1.1/"
   xmlns:cc="http://creativecommons.org/ns#"
   xmlns:rdf="http://www.w3.org/1999/02/22-rdf-syntax-ns#"
   xmlns:svg="http://www.w3.org/2000/svg"
   xmlns="http://www.w3.org/2000/svg"
   xmlns:sodipodi="http://sodipodi.sourceforge.net/DTD/sodipodi-0.dtd"
   xmlns:inkscape="http://www.inkscape.org/namespaces/inkscape"
   id="svg2"
   version="1.1"
   viewBox="0 0 283.46458 283.46457"
   height="10cm"
   width="10cm"
   inkscape:version="0.91 r13725"
   sodipodi:docname="keyfender-logo.svg"
   inkscape:export-filename="/Users/sanders/Pictures/keyfender-logo-gray.png"
   inkscape:export-xdpi="130.05"
   inkscape:export-ydpi="130.05">
  <sodipodi:namedview
     pagecolor="#ffffff"
     bordercolor="#666666"
     borderopacity="1"
     objecttolerance="10"
     gridtolerance="10"
     guidetolerance="10"
     inkscape:pageopacity="0"
     inkscape:pageshadow="2"
     inkscape:window-width="1158"
     inkscape:window-height="825"
     id="namedview26"
     showgrid="false"
     inkscape:zoom="1.6328077"
     inkscape:cx="255.16261"
     inkscape:cy="183.51161"
     inkscape:window-x="147"
     inkscape:window-y="0"
     inkscape:window-maximized="0"
     inkscape:current-layer="g3378"
     units="cm" />
  <metadata
     id="metadata15">
    <rdf:RDF>
      <cc:Work
         rdf:about="">
        <dc:format>image/svg+xml</dc:format>
        <dc:type
           rdf:resource="http://purl.org/dc/dcmitype/StillImage" />
        <dc:title></dc:title>
      </cc:Work>
    </rdf:RDF>
  </metadata>
  <defs
     id="defs13">
    <mask
       maskUnits="userSpaceOnUse"
       id="mask4142">
      <g
         id="g4144"
         transform="translate(0,-245.46457)">
        <path
           style="fill:#ffffff;fill-opacity:1"
           mask="none"
           d="m 18.365625,255.58019 c -2.458104,0 -4.423118,1.8397 -4.79375,4.19532 -0.09634,-0.009 -0.175089,-0.0281 -0.28125,-0.0281 -2.722566,0 -4.9390626,2.21961 -4.9390626,4.94219 0,2.72256 2.2164946,4.93906 4.9390626,4.93906 l 12.053125,0 c 2.371436,0 4.304687,-1.93181 4.304688,-4.30469 0,-1.8816 -1.275321,-3.3848 -2.964063,-3.96719 -0.09663,-1.58605 -1.362455,-2.87656 -2.971875,-2.87656 -0.334171,0 -0.621388,0.11902 -0.915625,0.21875 -0.743489,-1.78343 -2.381097,-3.11875 -4.43125,-3.11875 z"
           id="path4146"
           inkscape:connector-curvature="0" />
        <path
           mask="none"
           style="fill:#565656;fill-opacity:1;fill-rule:nonzero;stroke:none;stroke-opacity:1"
           d="m 21.463004,266.51709 9.6e-5,-1.2317 -4.23911,-2e-4 c -0.355014,1.1851 -1.440315,2.05271 -2.741084,2.05381 -1.586717,-10e-4 -2.87391,-1.28827 -2.873872,-2.87388 -3.8e-5,-1.58767 1.287251,-2.87496 2.874983,-2.87498 1.299696,8e-5 2.385629,0.86942 2.739782,2.05312 l 8.346102,8.4e-4 c 0.451728,-2.7e-4 0.821429,0.36943 0.821065,0.82106 7.6e-5,0.45139 -0.369701,0.82116 -0.821065,0.82107 l 7.6e-5,1.23168 c -7.6e-5,0.2269 -0.183778,0.4106 -0.41058,0.41058 l -0.821104,6e-5 c -0.227013,2.3e-4 -0.410753,-0.18351 -0.410523,-0.41052 l -3.8e-5,-1.23172 -0.82231,-0.001 9.38e-4,1.23316 c 0,0.22682 -0.183778,0.4106 -0.41058,0.41058 l -0.821065,2e-5 c -0.22799,-0.001 -0.410511,-0.18368 -0.411711,-0.41171 z m -6.979006,-3.28465 c -0.680427,0 -1.232852,0.55243 -1.232852,1.23286 1.34e-4,0.67803 0.553555,1.23145 1.231645,1.23164 0.679297,-10e-4 1.231752,-0.55355 1.232852,-1.23285 2e-5,-0.67826 -0.553401,-1.23168 -1.231645,-1.23165 z"
           id="path4148"
           inkscape:connector-curvature="0" />
      </g>
    </mask>
  </defs>
  <g
     id="g3378"
     transform="matrix(7.4970576,0,0,7.4970576,-0.71180981,-1840.9738)">
    <path
       transform="translate(0,245.46457)"
       inkscape:connector-curvature="0"
       d="m 18.365668,10.615662 c -2.380135,0 -4.310043,1.880337 -4.419053,4.233605 -0.216667,-0.03121 -0.431891,-0.06513 -0.655585,-0.06513 -2.452358,0 -4.4403069,1.98794 -4.4403069,4.440307 0,2.452356 1.9879489,4.440305 4.4403069,4.440305 l 12.052263,0 c 2.101219,0 3.805984,-1.703358 3.805984,-3.805981 0,-1.791114 -1.243195,-3.284922 -2.911125,-3.689895 0.0016,-0.03959 0.01133,-0.07647 0.01133,-0.116081 0,-1.401775 -1.13559,-2.537318 -2.537318,-2.537318 -0.402124,0 -0.775921,0.101948 -1.112931,0.267597 -0.550784,-1.827915 -2.227221,-3.167388 -4.233566,-3.167388"
       id="path5670"
       mask="url(#mask4142)" />
    <path
       inkscape:connector-curvature="0"
       id="path9"
       d="m 18.998296,250.52806 c -0.02386,0 -0.04772,0 -0.09544,0.0239 L 7.207929,255.4978 c -0.1227098,0.0477 -0.1976995,0.17043 -0.1976995,0.317 l 0,10.28036 c 0,0.0511 0,0.0988 0.027269,0.14657 0.5828718,1.48615 3.9198965,8.94077 11.8653555,12.13464 0.04772,0.0239 0.119302,0.0239 0.170431,0 7.965911,-3.19387 11.279076,-10.64849 11.861948,-12.13464 0.02727,-0.0477 0.02727,-0.0954 0.02727,-0.14657 l 0,-10.28036 c 0,-0.14657 -0.07499,-0.26928 -0.1977,-0.317 l -11.667657,-4.94588 c -0.02386,-0.0239 -0.05113,-0.0239 -0.09885,-0.0239 m 0,30.47975 c -0.364721,0 -0.705581,-0.075 -1.046442,-0.19429 C 9.0110812,277.23107 5.282067,268.87317 4.6242055,267.24045 4.4776352,266.89959 4.4060547,266.51101 4.4060547,266.11902 l 0,-10.30422 c 0,-1.193 0.7055816,-2.26672 1.7758842,-2.70302 l 11.7187861,-4.97315 c 0.70899,-0.28973 1.486152,-0.28973 2.195142,0 l 11.718787,4.94588 c 1.070301,0.43972 1.779291,1.51343 1.779291,2.70643 l 0,10.28036 c 0,0.36472 -0.07499,0.75671 -0.221559,1.12143 -0.65786,1.65658 -4.383467,10.01448 -13.327649,13.56966 -0.313591,0.17043 -0.681721,0.24542 -1.046441,0.24542"
       style="fill:#000000;fill-opacity:1;fill-rule:nonzero;stroke:none" />
  </g>
</svg>
