<?xml version="1.0" encoding="UTF-8" standalone="no"?>
<svg
   xmlns:dc="http://purl.org/dc/elements/1.1/"
   xmlns:cc="http://creativecommons.org/ns#"
   xmlns:rdf="http://www.w3.org/1999/02/22-rdf-syntax-ns#"
   xmlns:svg="http://www.w3.org/2000/svg"
   xmlns="http://www.w3.org/2000/svg"
   xmlns:sodipodi="http://sodipodi.sourceforge.net/DTD/sodipodi-0.dtd"
   xmlns:inkscape="http://www.inkscape.org/namespaces/inkscape"
   width="38pt"
   height="38pt"
   viewBox="0 0 38 38"
   version="1.1"
   id="svg2"
   inkscape:version="0.91 r13725"
   sodipodi:docname="nethsm-logo-simplified.svg"
   inkscape:export-filename="/Users/sanders/Pictures/nethsm-logo.png"
   inkscape:export-xdpi="485.05264"
   inkscape:export-ydpi="485.05264">
  <metadata
     id="metadata15">
    <rdf:RDF>
      <cc:Work
         rdf:about="">
        <dc:format>image/svg+xml</dc:format>
        <dc:type
           rdf:resource="http://purl.org/dc/dcmitype/StillImage" />
        <dc:title></dc:title>
      </cc:Work>
    </rdf:RDF>
  </metadata>
  <defs
     id="defs13" />
  <sodipodi:namedview
     pagecolor="#e7ecff"
     bordercolor="#666666"
     borderopacity="1"
     objecttolerance="10"
     gridtolerance="10"
     guidetolerance="10"
     inkscape:pageopacity="0"
     inkscape:pageshadow="2"
     inkscape:window-width="1152"
     inkscape:window-height="785"
     id="namedview11"
     showgrid="false"
     inkscape:zoom="12.474494"
     inkscape:cx="14.614341"
     inkscape:cy="24.898901"
     inkscape:window-x="187"
     inkscape:window-y="21"
     inkscape:window-maximized="0"
     inkscape:current-layer="svg2"
     showguides="true"
     showborder="true"
     borderlayer="true">
    <inkscape:grid
       type="xygrid"
       id="grid5851" />
  </sodipodi:namedview>
  <path
     mask="none"
     d="M 22.957031 13.269531 C 19.981863 13.269531 17.569856 15.620915 17.433594 18.5625 C 17.16276 18.523488 16.892899 18.480469 16.613281 18.480469 C 13.547834 18.480469 11.0625 20.965791 11.0625 24.03125 C 11.0625 27.096695 13.547834 29.580078 16.613281 29.580078 L 31.679688 29.580078 C 34.306211 29.580078 36.4375 27.452497 36.4375 24.824219 C 36.4375 22.585326 34.881787 20.717154 32.796875 20.210938 C 32.798875 20.16145 32.8125 20.11592 32.8125 20.066406 C 32.8125 18.314187 31.392785 16.894531 29.640625 16.894531 C 29.13797 16.894531 28.671262 17.021454 28.25 17.228516 C 27.56152 14.943622 25.464963 13.269531 22.957031 13.269531 z M 18.105469 20.15625 C 19.730089 20.156345 21.086606 21.24303 21.529297 22.722656 L 31.962891 22.724609 C 32.527551 22.724276 32.988736 23.18546 32.988281 23.75 C 32.988376 24.31423 32.527096 24.777464 31.962891 24.777344 L 31.962891 26.316406 C 31.962796 26.600027 31.732721 26.830103 31.449219 26.830078 L 30.423828 26.830078 C 30.140062 26.830364 29.909869 26.600172 29.910156 26.316406 L 29.910156 24.777344 L 28.880859 24.775391 L 28.882812 26.316406 C 28.882812 26.599933 28.652643 26.830102 28.369141 26.830078 L 27.34375 26.830078 C 27.058763 26.828578 26.829625 26.601441 26.828125 26.316406 L 26.828125 24.775391 L 21.529297 24.775391 C 21.085529 26.256763 19.729477 27.342375 18.103516 27.34375 C 16.120119 27.342375 14.511671 25.732008 14.511719 23.75 C 14.511671 21.765405 16.120804 20.156272 18.105469 20.15625 z M 18.105469 22.208984 C 17.254935 22.208984 16.564453 22.899467 16.564453 23.75 C 16.564621 24.597542 17.255903 25.290776 18.103516 25.291016 C 18.952637 25.289641 19.643156 24.599122 19.644531 23.75 C 19.644556 22.902171 18.953274 22.208937 18.105469 22.208984 z "
     transform="scale(0.8,0.8)"
     id="path5670" />
  <path
     inkscape:connector-curvature="0"
     id="path9"
     d="m 18.998296,5.06349 c -0.02386,0 -0.04772,0 -0.09544,0.023861 L 7.207929,10.033237 c -0.1227098,0.04772 -0.1976995,0.17043 -0.1976995,0.317 l 0,10.280355 c 0,0.05113 0,0.09885 0.027269,0.14657 0.5828718,1.486152 3.9198965,8.940773 11.8653555,12.134637 0.04772,0.02386 0.119302,0.02386 0.170431,0 7.965911,-3.193864 11.279076,-10.648485 11.861948,-12.134637 0.02727,-0.04772 0.02727,-0.09544 0.02727,-0.14657 l 0,-10.280355 c 0,-0.14657 -0.07499,-0.26928 -0.1977,-0.317 L 19.097146,5.0873505 c -0.02386,-0.023861 -0.05113,-0.023861 -0.09885,-0.023861 m 0,30.4797515 c -0.364721,0 -0.705581,-0.07499 -1.046442,-0.194291 C 9.0110812,31.766507 5.282067,23.408605 4.6242055,21.775884 4.4776352,21.435023 4.4060547,21.046442 4.4060547,20.654452 l 0,-10.304215 c 0,-1.1930118 0.7055816,-2.2667228 1.7758842,-2.7030243 L 17.900725,2.6740576 c 0.70899,-0.2897317 1.486152,-0.2897317 2.195142,0 l 11.718787,4.9458862 c 1.070301,0.4397108 1.779291,1.5134218 1.779291,2.7064332 l 0,10.280355 c 0,0.364721 -0.07499,0.75671 -0.221559,1.121431 -0.65786,1.656583 -4.383467,10.014484 -13.327649,13.569659 -0.313591,0.170431 -0.681721,0.245419 -1.046441,0.245419"
     style="fill:#000000;fill-opacity:1;fill-rule:nonzero;stroke:none" />
  <g
     style="fill:#ffffff;fill-opacity:1;fill-rule:nonzero;stroke:none;stroke-opacity:1"
     id="g5756"
     transform="matrix(-0.01914753,0.01914753,0.01914753,0.01914753,18.840214,7.3491451)" />
  <g
     style="fill:#ffffff;fill-opacity:1;fill-rule:nonzero;stroke:none;stroke-opacity:1"
     id="g5758"
     transform="matrix(-0.01914753,0.01914753,0.01914753,0.01914753,18.840214,7.3491451)" />
  <g
     style="fill:#ffffff;fill-opacity:1;fill-rule:nonzero;stroke:none;stroke-opacity:1"
     id="g5760"
     transform="matrix(-0.01914753,0.01914753,0.01914753,0.01914753,18.840214,7.3491451)" />
  <g
     style="fill:#ffffff;fill-opacity:1;fill-rule:nonzero;stroke:none;stroke-opacity:1"
     id="g5762"
     transform="matrix(-0.01914753,0.01914753,0.01914753,0.01914753,18.840214,7.3491451)" />
  <g
     style="fill:#ffffff;fill-opacity:1;fill-rule:nonzero;stroke:none;stroke-opacity:1"
     id="g5764"
     transform="matrix(-0.01914753,0.01914753,0.01914753,0.01914753,18.840214,7.3491451)" />
  <g
     style="fill:#ffffff;fill-opacity:1;fill-rule:nonzero;stroke:none;stroke-opacity:1"
     id="g5766"
     transform="matrix(-0.01914753,0.01914753,0.01914753,0.01914753,18.840214,7.3491451)" />
  <g
     style="fill:#ffffff;fill-opacity:1;fill-rule:nonzero;stroke:none;stroke-opacity:1"
     id="g5768"
     transform="matrix(-0.01914753,0.01914753,0.01914753,0.01914753,18.840214,7.3491451)" />
  <g
     style="fill:#ffffff;fill-opacity:1;fill-rule:nonzero;stroke:none;stroke-opacity:1"
     id="g5770"
     transform="matrix(-0.01914753,0.01914753,0.01914753,0.01914753,18.840214,7.3491451)" />
  <g
     style="fill:#ffffff;fill-opacity:1;fill-rule:nonzero;stroke:none;stroke-opacity:1"
     id="g5772"
     transform="matrix(-0.01914753,0.01914753,0.01914753,0.01914753,18.840214,7.3491451)" />
  <g
     style="fill:#ffffff;fill-opacity:1;fill-rule:nonzero;stroke:none;stroke-opacity:1"
     id="g5774"
     transform="matrix(-0.01914753,0.01914753,0.01914753,0.01914753,18.840214,7.3491451)" />
  <g
     style="fill:#ffffff;fill-opacity:1;fill-rule:nonzero;stroke:none;stroke-opacity:1"
     id="g5776"
     transform="matrix(-0.01914753,0.01914753,0.01914753,0.01914753,18.840214,7.3491451)" />
  <g
     style="fill:#ffffff;fill-opacity:1;fill-rule:nonzero;stroke:none;stroke-opacity:1"
     id="g5778"
     transform="matrix(-0.01914753,0.01914753,0.01914753,0.01914753,18.840214,7.3491451)" />
  <g
     style="fill:#ffffff;fill-opacity:1;fill-rule:nonzero;stroke:none;stroke-opacity:1"
     id="g5780"
     transform="matrix(-0.01914753,0.01914753,0.01914753,0.01914753,18.840214,7.3491451)" />
  <g
     style="fill:#ffffff;fill-opacity:1;fill-rule:nonzero;stroke:none;stroke-opacity:1"
     id="g5782"
     transform="matrix(-0.01914753,0.01914753,0.01914753,0.01914753,18.840214,7.3491451)" />
  <g
     style="fill:#ffffff;fill-opacity:1;fill-rule:nonzero;stroke:none;stroke-opacity:1"
     id="g5784"
     transform="matrix(-0.01914753,0.01914753,0.01914753,0.01914753,18.840214,7.3491451)" />
</svg>
